<svg preserveAspectRatio="none" overflow="visible" style="display: block;" width="67.74" height="84" viewBox="0 0 67.74 84" fill="none" xmlns="http://www.w3.org/2000/svg">
<g id="Board - a-uebermich" clip-path="url(#clip0_0_32)">
<path id="Vector" d="M33.87 73.1613C29.1282 51.4839 30.483 28.4516 35.9022 6.77419C48.7728 23.0323 56.9016 46.0645 53.5146 67.7419C46.7406 71.8064 39.2892 74.5161 33.87 73.1613Z" fill="#E2A878"/>
<path id="Vector_2" opacity="0.6" d="M33.87 73.1613C30.483 54.1935 31.8378 31.1613 35.9022 6.77419C41.3214 27.0968 43.3536 51.4839 40.644 71.8065L33.87 73.1613Z" fill="#CF8F5E"/>
<path id="Vector_3" d="M33.87 73.1613L35.9022 6.77419" stroke="#274B52" stroke-width="2.4" stroke-linecap="round"/>
<path id="Vector_4" d="M29.8056 74.5161C24.3864 66.3871 26.4186 59.6129 31.8378 56.9032" stroke="#274B52" stroke-width="3" stroke-linecap="round"/>
<path id="Vector_5" d="M29.8056 74.5161L27.096 79.9355" stroke="#274B52" stroke-width="3" stroke-linecap="round"/>
<path id="Vector_6" d="M31.1604 56.4968C32.8065 56.4968 34.141 55.1623 34.141 53.5161C34.141 51.87 32.8065 50.5355 31.1604 50.5355C29.5143 50.5355 28.1798 51.87 28.1798 53.5161C28.1798 55.1623 29.5143 56.4968 31.1604 56.4968Z" fill="#274B52"/>
<path id="Vector_7" d="M34.0779 82.9089C44.1545 82.2042 52.2301 80.3018 52.1152 78.6596C52.0004 77.0175 43.7387 76.2575 33.6621 76.9621C23.5855 77.6667 15.5099 79.5692 15.6248 81.2114C15.7396 82.8535 24.0013 83.6135 34.0779 82.9089Z" fill="#F2E7D8"/>
</g>
<defs>
<clipPath id="clip0_0_32">
<rect width="67.74" height="84" fill="white"/>
</clipPath>
</defs>
</svg>
